<?xml version="1.0" standalone="no"?>
<!DOCTYPE svg PUBLIC "-//W3C//DTD SVG 20010904//EN"
 "http://www.w3.org/TR/2001/REC-SVG-20010904/DTD/svg10.dtd">
<svg version="1.0" xmlns="http://www.w3.org/2000/svg"
 width="1200.000000pt" height="675.000000pt" viewBox="0 0 1200.000000 675.000000"
 preserveAspectRatio="xMidYMid meet">
<metadata>
Created by potrace 1.16, written by Peter Selinger 2001-2019
</metadata>
<g transform="translate(0.000000,675.000000) scale(0.100000,-0.100000)"
fill="#000000" stroke="none">
<path d="M0 6191 c0 -484 2 -560 15 -571 8 -7 15 -18 15 -25 0 -6 12 -18 28
-25 15 -8 34 -19 42 -26 8 -6 27 -14 42 -18 15 -3 33 -16 39 -29 7 -12 20 -27
29 -34 41 -29 90 -176 79 -233 -9 -41 -12 -213 -6 -285 4 -43 9 -53 38 -73 59
-39 67 -55 74 -149 10 -140 11 -141 58 -154 95 -25 140 -62 151 -120 5 -27 14
-40 34 -48 21 -9 309 -71 328 -71 2 0 4 22 4 48 0 38 5 53 23 69 37 34 110 55
214 62 l98 6 6 90 c10 160 33 209 217 448 39 52 72 97 72 100 0 3 20 26 45 53
25 26 45 54 45 63 -1 12 -5 11 -19 -6 -25 -30 -38 -29 -68 3 -18 19 -21 30
-13 38 8 8 12 5 16 -11 3 -12 13 -24 21 -27 11 -4 9 3 -7 28 l-21 34 22 7 c17
6 19 9 8 16 -10 6 -11 11 -3 17 23 15 25 59 4 85 -11 14 -20 32 -20 40 0 7 -7
28 -16 46 -8 17 -20 61 -25 98 -5 37 -15 70 -21 74 -6 4 -15 33 -19 65 -4 31
-13 60 -19 64 -24 15 -23 76 2 121 13 24 25 53 25 64 2 29 21 75 32 75 14 0
30 52 30 103 0 48 0 49 -27 42 -15 -4 -30 -12 -34 -18 -6 -9 -11 -8 -18 3 -8
12 -14 10 -38 -13 -15 -15 -37 -27 -49 -27 -11 0 -26 -7 -33 -15 -7 -8 -22
-15 -34 -15 -11 0 -43 -7 -69 -15 -43 -13 -52 -13 -77 0 -16 8 -36 15 -45 15
-9 0 -18 7 -22 16 -3 8 -12 13 -19 10 -9 -3 -14 2 -14 13 0 10 -7 24 -15 31
-8 7 -15 23 -15 36 0 12 -4 25 -9 28 -5 4 -12 25 -16 49 -4 23 -11 49 -16 58
-4 8 -10 38 -13 65 -5 55 -13 82 -31 104 -13 15 -45 133 -45 163 0 16 -36 17
-480 17 l-480 0 0 -559z"/>
<path d="M1735 6714 c-8 -20 -15 -54 -15 -76 0 -22 -4 -47 -9 -57 -12 -22 7
-101 24 -101 7 0 20 11 29 25 9 14 26 25 37 25 12 0 17 4 13 11 -4 7 1 7 16
-1 24 -13 34 -7 45 28 5 18 2 22 -14 22 -12 0 -21 5 -21 10 0 12 10 13 30 0
25 -16 50 17 50 67 0 24 -5 43 -11 43 -6 0 -8 9 -4 20 6 19 2 20 -74 20 l-81
0 -15 -36z"/>
<path d="M2433 6738 c-15 -25 -13 -51 4 -64 12 -9 13 -13 5 -14 -23 0 20 -49
56 -62 17 -7 32 -18 32 -24 0 -7 11 -21 25 -32 14 -11 25 -25 25 -31 0 -6 8
-11 18 -11 24 0 42 -19 42 -44 0 -12 18 -36 40 -55 34 -29 40 -39 40 -74 0
-57 20 -107 42 -107 10 0 18 4 18 10 0 5 6 7 14 4 11 -4 13 -17 9 -54 -6 -49
9 -80 36 -80 19 0 12 -17 -9 -23 -17 -4 -19 -9 -10 -31 8 -23 7 -26 -10 -26
-11 0 -20 -5 -20 -10 0 -12 37 -5 89 16 18 8 40 14 48 14 7 0 29 7 48 14 31
13 34 18 26 39 -6 14 -5 41 2 71 8 35 8 56 0 77 -7 18 -8 31 -2 35 6 3 10 27
9 52 0 69 10 122 31 156 11 17 19 37 19 45 0 8 17 30 38 50 21 20 41 44 45 54
4 9 13 17 22 17 8 0 15 4 15 9 0 5 10 13 23 16 12 4 30 17 39 29 16 19 18 20
18 2 0 -30 47 -66 95 -73 35 -4 49 -1 74 17 25 17 61 75 61 96 0 2 -236 4
-524 4 -409 0 -527 -3 -533 -12z"/>
<path d="M4103 6704 c-2 -51 -16 -74 -46 -74 -16 0 -18 -3 -9 -12 7 -7 12 -20
12 -29 0 -10 6 -19 13 -22 10 -3 10 -9 0 -26 -7 -11 -13 -32 -13 -45 0 -14 -8
-30 -17 -36 -13 -8 -14 -13 -5 -16 21 -9 14 -31 -23 -70 -38 -40 -44 -64 -20
-84 8 -7 12 -17 8 -22 -4 -7 32 -9 108 -6 74 3 114 9 117 17 2 6 9 17 16 24 7
7 13 29 14 50 1 20 6 46 12 57 6 11 9 24 7 28 -11 18 86 172 108 172 8 0 15 5
15 10 0 14 36 12 61 -2 18 -12 24 -9 50 20 22 24 29 42 29 72 l0 40 -217 0
-218 0 -2 -46z"/>
<path d="M7480 6735 c7 -8 19 -15 26 -15 8 0 14 -4 14 -8 0 -5 17 -14 38 -20
33 -10 40 -18 54 -59 9 -27 19 -84 21 -129 2 -45 7 -86 11 -92 3 -5 8 -38 11
-71 2 -34 6 -65 9 -70 3 -5 -3 -11 -14 -14 -13 -3 -24 -22 -35 -60 -9 -31 -29
-75 -45 -99 -16 -24 -30 -50 -30 -58 0 -8 -9 -33 -20 -55 -11 -22 -20 -49 -20
-60 0 -11 -7 -29 -15 -39 -8 -11 -15 -32 -15 -47 0 -15 -7 -35 -15 -43 -9 -8
-22 -53 -29 -98 -8 -46 -18 -94 -24 -108 -5 -14 -12 -46 -16 -71 -4 -27 -15
-54 -26 -64 -15 -14 -17 -21 -9 -31 13 -15 3 -131 -12 -140 -5 -3 -9 -43 -9
-90 0 -85 -15 -136 -42 -147 -10 -4 -10 -8 1 -15 12 -9 12 -19 1 -73 -7 -34
-22 -71 -32 -81 -17 -17 -17 -20 -2 -44 13 -19 15 -30 6 -49 -7 -16 -8 -35 -2
-56 7 -24 6 -39 -4 -53 -20 -32 -29 -76 -15 -76 7 0 5 -8 -5 -19 -12 -13 -15
-27 -11 -41 4 -13 0 -31 -10 -46 -9 -14 -14 -33 -11 -41 4 -9 1 -22 -6 -30 -7
-8 -13 -40 -14 -72 -1 -31 -8 -69 -17 -84 -16 -30 -16 -155 0 -179 8 -13 9
-17 12 -71 1 -20 7 -31 21 -34 20 -5 29 -33 10 -33 -5 0 -10 6 -10 13 0 25
-20 -18 -20 -45 0 -29 -15 -45 -25 -28 -10 17 -75 12 -75 -5 0 -8 9 -15 21
-15 15 0 19 -5 14 -19 -4 -13 0 -20 15 -24 24 -6 26 -29 5 -47 -20 -17 -19
-33 5 -48 14 -8 20 -23 20 -47 0 -24 6 -39 20 -47 23 -15 26 -36 5 -44 -8 -3
-17 -14 -20 -24 -3 -10 -16 -20 -27 -22 -12 -2 -23 -9 -26 -17 -3 -8 0 -11 6
-7 6 3 16 -9 23 -31 10 -31 9 -38 -4 -48 -14 -10 -13 -12 4 -23 10 -7 19 -19
19 -28 0 -11 6 -15 19 -11 20 5 31 -10 31 -40 0 -12 -2 -12 -16 1 -8 9 -20 16
-25 16 -15 0 -10 -17 6 -24 19 -7 19 -42 0 -50 -8 -3 -27 -1 -41 4 -32 12 -54
13 -54 1 0 -5 9 -7 20 -4 14 4 20 0 20 -11 0 -9 -5 -16 -10 -16 -7 0 -7 -6 0
-20 15 -28 35 -25 60 10 18 25 25 28 36 19 8 -6 14 -24 14 -40 0 -32 11 -37
30 -14 9 10 9 15 1 15 -22 0 -11 45 13 56 21 10 25 9 31 -10 l8 -21 4 22 c2
12 0 30 -6 40 -6 10 -11 12 -11 6 0 -19 -50 6 -50 25 0 9 3 12 7 9 3 -4 12 -2
20 4 10 9 18 7 33 -6 11 -10 36 -19 55 -19 21 -1 35 -6 35 -13 0 -7 5 -13 10
-13 27 0 4 29 -45 58 -54 33 -64 45 -45 57 14 8 50 -13 50 -29 0 -9 12 -14 35
-13 34 1 35 2 35 43 0 25 -6 49 -15 58 -8 8 -15 20 -15 26 0 6 -5 8 -11 4 -6
-3 -8 -17 -5 -30 10 -39 -3 -27 -24 21 -11 25 -24 51 -30 58 -5 6 -22 27 -37
46 l-27 34 25 -8 c13 -4 27 -12 31 -18 3 -6 8 1 10 14 2 17 10 25 29 27 38 4
42 41 13 97 -18 33 -20 43 -9 39 11 -5 15 1 15 18 0 14 -3 28 -7 32 -4 4 -8
19 -9 34 -1 15 -8 41 -15 57 l-13 30 -4 -28 c-3 -23 -6 -26 -18 -16 -8 6 -14
18 -14 26 0 8 -11 24 -25 35 -14 11 -25 26 -25 34 0 20 38 55 57 52 13 -3 16
10 18 82 1 55 11 118 28 180 15 56 29 136 33 195 10 165 54 481 93 680 12 61
35 194 56 335 27 176 53 300 84 396 29 92 74 182 98 197 8 5 11 17 7 33 -7 28
10 32 41 10 11 -7 47 -29 80 -47 53 -29 68 -33 130 -32 62 1 77 5 133 38 34
21 62 41 62 46 0 5 6 9 13 9 7 0 38 26 69 58 43 45 57 66 61 97 3 22 10 41 15
43 6 2 -1 23 -15 47 -29 53 -82 85 -179 109 -103 27 -224 68 -224 78 0 4 -9 8
-19 8 -11 0 -22 4 -25 9 -3 4 -27 14 -53 21 -27 7 -55 19 -64 27 -8 7 -19 13
-22 13 -4 0 -25 11 -47 25 -34 22 -51 25 -126 25 -76 0 -85 -2 -74 -15z"/>
<path d="M11756 6695 c30 -30 58 -55 63 -55 6 0 29 -26 52 -57 23 -32 56 -74
73 -94 17 -19 36 -44 43 -55 9 -15 12 15 12 149 l1 167 -148 0 -149 0 53 -55z"/>
<path d="M2113 6043 c-18 -8 -33 -20 -33 -25 0 -6 -7 -4 -16 3 -14 11 -18 11
-29 -4 -7 -9 -20 -17 -29 -17 -9 0 -18 -6 -20 -12 -2 -7 -9 -33 -15 -58 -29
-105 -40 -213 -28 -270 3 -14 6 -27 6 -29 1 -3 11 5 24 17 22 20 24 21 46 6
18 -13 20 -18 10 -25 -11 -7 -10 -9 3 -9 9 0 18 5 20 11 2 7 4 -5 5 -25 1 -20
-2 -36 -5 -36 -13 -1 -55 -40 -49 -46 3 -3 23 6 46 20 22 14 44 26 48 26 5 0
37 21 73 46 36 26 56 44 44 42 -11 -3 -28 0 -37 7 -15 11 -15 14 -3 24 8 7 12
19 9 27 -4 11 -9 10 -24 -7 -11 -12 -19 -27 -19 -33 0 -6 -7 2 -15 18 -13 24
-13 32 -2 45 14 17 12 51 -4 51 -6 0 -5 8 1 21 6 11 10 28 8 37 -2 9 3 22 11
28 10 8 11 16 4 29 -11 20 -6 55 8 55 5 0 9 9 9 21 0 11 -4 17 -10 14 -12 -8
-13 8 -1 21 5 5 6 17 2 26 -6 16 -8 16 -38 1z"/>
<path d="M6362 6037 c-5 -6 -17 -49 -26 -93 -9 -45 -25 -104 -35 -130 -11 -27
-22 -61 -25 -75 -3 -15 -14 -29 -26 -32 -19 -5 -20 -11 -16 -91 3 -48 1 -88
-5 -91 -5 -4 -9 -21 -9 -39 0 -19 -7 -39 -15 -46 -13 -11 -13 -15 0 -33 21
-30 19 -47 -5 -47 -17 0 -20 -7 -20 -44 0 -25 4 -47 8 -50 7 -4 8 -20 3 -78 0
-9 -9 -24 -18 -33 -13 -14 -14 -21 -5 -36 7 -10 12 -39 12 -63 0 -25 4 -47 9
-50 5 -3 7 -53 6 -112 -3 -86 0 -106 12 -111 10 -4 13 -14 9 -29 -8 -31 14
-40 107 -49 57 -6 67 -9 67 -26 0 -19 16 -25 36 -11 6 4 17 45 24 92 6 47 15
110 20 140 4 30 13 100 20 155 7 55 16 109 21 120 4 11 17 78 29 148 25 157
28 286 6 346 -9 24 -18 82 -22 130 -6 104 -8 111 -33 111 -14 0 -20 -9 -23
-35 -2 -19 0 -42 5 -51 5 -8 6 -37 3 -62 -7 -55 -17 -190 -19 -248 -1 -30 -6
-41 -17 -40 -11 1 -15 -10 -15 -44 -1 -123 -4 -141 -22 -138 -27 5 -28 -43 -3
-93 18 -34 19 -43 8 -50 -23 -15 -35 -10 -40 19 -10 54 -9 219 2 286 13 84 23
583 11 591 -5 2 -13 -1 -19 -8z"/>
<path d="M9557 5990 c-49 -16 -110 -41 -135 -54 -26 -14 -103 -52 -172 -84
-183 -87 -185 -89 -64 -91 54 -1 140 -3 189 -4 135 -3 313 30 420 78 17 7 45
16 62 20 18 3 35 10 38 15 7 11 -87 0 -102 -12 -19 -15 -163 0 -170 18 -3 8
-16 14 -30 14 -15 0 -22 4 -18 11 4 6 14 8 22 5 9 -4 21 -2 28 4 17 14 7 50
-14 50 -9 0 3 10 27 22 23 12 42 25 42 30 0 14 -32 8 -123 -22z"/>
<path d="M7806 5883 c12 -25 12 -29 -2 -40 -14 -10 -14 -17 -5 -44 14 -40 14
-126 1 -134 -5 -3 -10 -24 -10 -46 0 -21 -4 -39 -10 -39 -5 0 -10 -16 -10 -35
0 -19 -4 -35 -9 -35 -5 0 -8 -18 -6 -39 3 -25 -1 -43 -9 -50 -10 -9 -13 -34
-11 -91 2 -44 -1 -80 -5 -80 -12 0 -20 -44 -10 -54 6 -6 10 -23 10 -38 0 -20
-5 -28 -18 -28 -27 0 -32 -9 -20 -36 8 -17 8 -27 -2 -39 -13 -16 -6 -65 10
-65 15 0 12 -21 -6 -42 -14 -14 -14 -20 -4 -33 7 -8 21 -15 32 -15 10 0 21 -7
24 -15 4 -8 14 -15 23 -15 12 0 13 2 3 9 -20 12 12 23 44 15 14 -4 24 -2 24 5
0 6 -3 11 -7 11 -5 0 -17 7 -27 15 -19 14 -19 15 -1 35 13 15 16 23 8 28 -6 4
-13 16 -15 26 -2 16 3 20 27 20 20 1 31 7 33 19 2 10 -3 17 -12 17 -21 0 -21
49 -1 56 22 9 18 41 -5 47 -23 6 -27 27 -5 27 8 0 15 -4 15 -10 0 -5 4 -10 8
-10 15 0 32 49 32 93 0 23 16 98 36 167 19 69 45 159 56 201 l20 76 -97 96
c-53 53 -100 97 -105 97 -5 0 -2 -12 6 -27z"/>
<path d="M3973 5813 c3 -10 19 -54 35 -98 31 -83 52 -219 46 -290 -15 -197
-57 -354 -133 -500 -29 -56 -95 -146 -113 -153 -4 -2 -8 -8 -8 -13 0 -14 -68
-71 -109 -91 -20 -10 -46 -25 -58 -34 -22 -16 -23 -16 -24 7 l0 24 -11 -22
c-8 -17 -21 -23 -57 -25 -25 -2 -56 1 -68 6 -16 6 -29 4 -48 -8 -14 -9 -25
-12 -25 -6 0 5 5 10 10 10 6 0 8 10 4 24 -3 13 -1 27 5 30 6 4 11 15 11 24 -1
15 -3 14 -16 -3 -9 -11 -31 -51 -51 -89 -19 -37 -43 -78 -54 -90 -25 -27 -69
-104 -69 -122 0 -8 9 -14 21 -14 11 0 29 -5 40 -10 15 -9 21 -7 25 5 3 8 13
15 21 15 8 0 11 5 8 10 -10 16 7 12 27 -6 13 -13 21 -14 32 -5 7 6 20 9 29 6
8 -4 33 -1 56 5 36 10 41 14 41 40 0 35 10 38 28 10 18 -29 32 -24 32 11 0 28
1 29 16 15 22 -22 33 -20 44 9 7 18 16 24 32 22 18 -2 24 4 26 26 3 23 6 26
17 17 27 -23 50 21 24 47 -8 8 -8 13 0 17 6 4 11 2 11 -3 0 -6 7 -11 16 -11
12 0 15 6 11 23 -9 32 7 54 26 38 16 -13 33 1 23 18 -12 19 6 42 27 35 18 -6
19 -3 14 26 -6 26 -3 33 13 37 14 4 20 14 20 33 0 15 6 30 14 33 7 3 16 19 19
36 5 22 12 31 27 31 18 0 19 2 8 21 -11 18 -10 23 10 39 12 10 22 29 22 44 0
13 5 28 10 31 6 4 8 16 5 27 -4 12 0 27 10 38 10 11 15 26 12 33 -3 8 0 20 6
26 10 10 15 47 16 125 0 15 5 34 11 41 7 9 8 15 1 20 -6 3 -8 27 -5 58 7 66 7
58 -11 152 -25 129 -27 135 -36 141 -5 3 -9 13 -9 23 0 10 -6 24 -14 30 -7 6
-16 25 -20 41 -3 17 -11 30 -17 30 -6 0 -9 -8 -6 -17z"/>
<path d="M4704 5603 c4 -49 14 -146 22 -218 18 -149 13 -435 -10 -538 -8 -34
-19 -87 -26 -117 -31 -144 -103 -330 -128 -330 -7 0 -32 -48 -32 -62 0 -4 9
-8 20 -8 11 0 20 5 20 10 0 6 6 10 13 10 14 1 77 81 77 98 0 15 40 91 51 98
11 6 13 -12 9 -95 -2 -64 -11 -93 -57 -188 -20 -42 -23 -55 -13 -73 16 -29 43
-21 51 15 17 68 40 151 49 170 5 11 11 66 13 121 4 72 10 109 21 127 12 18 14
27 6 32 -14 9 -4 78 17 118 11 21 11 32 3 42 -8 9 -8 15 0 20 5 3 10 42 10 91
0 71 3 87 20 104 25 25 26 50 3 56 -15 4 -18 18 -20 72 -2 65 -33 271 -52 342
-35 127 -56 190 -64 190 -6 0 -7 -34 -3 -87z"/>
<path d="M8234 5608 c3 -18 13 -82 21 -143 9 -60 24 -135 34 -165 10 -30 22
-76 25 -102 7 -47 32 -71 47 -46 8 13 3 78 -8 108 -6 15 -12 80 -13 136 0 19
-6 34 -15 38 -12 4 -14 15 -9 44 4 25 2 42 -5 46 -6 4 -8 18 -5 31 8 31 -29
85 -58 85 -17 0 -19 -5 -14 -32z"/>
<path d="M5159 5318 c-8 -74 5 -202 31 -308 5 -19 10 -75 11 -125 2 -84 1 -90
-18 -93 -26 -4 -33 -28 -33 -113 0 -40 -6 -78 -15 -95 -8 -16 -15 -49 -15 -74
-1 -63 -15 -79 -70 -74 -25 3 -71 -1 -104 -8 -61 -13 -76 -29 -76 -82 0 -48
22 -60 99 -58 39 2 71 -1 71 -7 0 -12 -69 -18 -111 -10 -18 4 -42 4 -53 -1
-28 -11 -63 -97 -49 -119 12 -19 49 -26 66 -13 7 5 44 15 83 22 62 10 76 16
106 48 39 41 73 120 65 151 -3 11 1 25 9 32 8 6 14 25 14 41 0 17 9 38 23 52
12 12 33 56 46 97 13 41 28 86 33 100 9 26 6 250 -5 359 -8 70 -30 155 -61
227 -23 56 -45 79 -47 51z"/>
<path d="M5387 5239 c-15 -22 -27 -46 -27 -53 0 -16 41 -138 51 -151 13 -17
31 -171 26 -222 -3 -26 -11 -70 -17 -98 -23 -104 -51 -355 -51 -474 -1 -137 8
-157 48 -119 12 11 32 26 44 32 22 11 33 26 43 59 3 10 15 17 31 17 21 0 29 8
45 46 11 25 20 60 20 78 0 18 4 36 9 41 7 9 -3 81 -29 193 -6 23 -14 61 -19
85 -17 86 -35 145 -76 252 -24 61 -53 142 -65 182 -21 67 -21 74 -7 122 8 28
12 51 8 51 -4 0 -19 -18 -34 -41z"/>
<path d="M5695 5022 c11 -9 34 -37 50 -62 17 -25 33 -46 38 -48 4 -2 7 -9 7
-15 0 -19 90 -107 110 -107 22 0 44 -25 37 -44 -3 -7 -20 -20 -37 -27 -27 -12
-31 -18 -26 -42 6 -27 4 -28 -24 -22 -24 5 -30 3 -30 -9 0 -13 6 -15 26 -10
17 4 29 2 35 -7 12 -19 11 -32 -2 -24 -6 4 -20 -3 -31 -15 -18 -19 -19 -25 -7
-47 12 -22 11 -27 -6 -40 -16 -13 -17 -15 -2 -10 12 5 17 1 17 -14 0 -10 11
-37 25 -59 15 -23 21 -42 15 -45 -14 -9 -3 -25 17 -25 10 0 14 6 10 19 -3 14
0 17 15 13 10 -2 27 3 36 11 10 9 38 19 62 23 25 4 50 13 55 19 10 13 40 22
105 32 19 3 42 11 50 19 8 7 35 17 58 23 24 5 46 12 49 15 9 9 -83 92 -146
134 -57 37 -139 115 -204 195 -35 42 -111 102 -173 135 -13 7 -24 17 -24 22 0
12 -57 30 -94 30 -30 -1 -31 -1 -11 -18z"/>
<path d="M4590 4908 c0 -7 -11 -35 -25 -63 -13 -27 -25 -58 -25 -68 0 -10 -6
-30 -14 -45 -8 -15 -17 -44 -21 -64 -6 -30 -4 -37 12 -40 29 -6 73 70 84 144
16 105 15 148 -1 148 -5 0 -10 -6 -10 -12z"/>
<path d="M2370 4736 c0 -107 -17 -205 -54 -318 -28 -87 -36 -152 -52 -408 -2
-47 -9 -110 -16 -140 -6 -30 -10 -84 -10 -120 0 -54 -4 -68 -21 -85 -24 -22
-87 -25 -111 -5 -9 6 -20 9 -26 5 -5 -3 -10 1 -10 10 0 12 -6 15 -22 9 -30 -9
-30 -8 -32 -38 0 -17 -6 -24 -14 -21 -8 3 -18 5 -23 5 -5 0 -9 9 -9 19 0 11
-4 22 -8 25 -5 3 -9 19 -10 36 0 17 -10 59 -21 93 -29 91 -41 169 -41 276 0
143 27 383 54 486 47 177 55 262 22 249 -7 -3 -16 -25 -19 -48 -7 -50 -43
-150 -61 -169 -13 -14 -50 -106 -73 -182 -8 -27 -16 -87 -18 -132 -1 -45 -5
-86 -9 -91 -3 -5 -8 -52 -10 -103 -3 -52 -9 -107 -15 -122 -9 -24 -15 -26 -49
-23 -36 4 -39 2 -34 -20 3 -18 8 -22 20 -15 19 11 52 2 52 -14 0 -7 -7 -15
-15 -19 -8 -3 -15 -1 -15 4 0 6 -4 10 -10 10 -5 0 -10 -5 -10 -11 0 -16 97
-141 189 -244 76 -85 108 -142 103 -185 -1 -8 8 -33 21 -55 44 -77 136 -84
223 -18 48 37 50 37 144 38 73 1 105 -3 139 -18 51 -22 132 -18 162 8 9 9 20
38 24 65 9 64 -3 160 -20 160 -17 0 -77 75 -68 84 4 4 0 4 -9 1 -13 -5 -19 0
-24 19 -3 14 -10 26 -16 26 -5 0 -14 13 -19 30 -6 16 -20 32 -31 36 -27 8 -34
-2 -15 -24 24 -26 21 -32 -13 -32 -47 0 -56 27 -70 195 -21 266 -23 374 -10
464 7 47 13 147 14 221 1 138 -8 180 -39 180 -12 0 -15 -18 -15 -94z"/>
<path d="M11568 4483 c-33 -39 -108 -185 -108 -210 0 -10 -10 -34 -22 -53 -12
-19 -22 -44 -22 -54 -1 -24 -35 -30 -58 -9 -19 17 -51 12 -83 -13 -19 -14 -19
-16 -2 -25 9 -6 17 -21 17 -35 0 -14 -4 -23 -10 -19 -5 3 -18 0 -30 -7 -17
-11 -19 -19 -14 -63 4 -27 10 -55 15 -60 4 -6 10 -44 13 -86 6 -94 23 -143 72
-216 65 -94 137 -158 115 -100 -14 35 -31 185 -31 268 0 183 25 277 98 378 18
24 32 48 32 53 0 5 18 41 41 78 58 99 60 189 3 190 -6 0 -18 -8 -26 -17z"/>
<path d="M9560 4042 c0 -5 -9 -12 -20 -15 -11 -3 -20 -1 -20 5 0 17 -93 2
-132 -22 -21 -12 -42 -19 -47 -16 -9 6 -71 -22 -82 -37 -3 -4 -30 8 -60 28
-45 30 -55 33 -58 19 -1 -10 4 -21 13 -26 9 -5 16 -16 16 -24 0 -8 10 -18 23
-23 20 -8 33 -20 98 -88 25 -26 39 -22 39 10 0 12 11 39 24 58 19 28 34 38 63
42 21 3 65 10 98 15 86 14 146 32 140 42 -3 4 4 6 15 3 14 -4 20 0 20 11 0 12
-9 16 -34 16 -18 0 -48 3 -65 6 -18 4 -31 2 -31 -4z"/>
<path d="M615 3951 c-10 -17 -117 -69 -170 -82 -31 -8 -53 -21 -67 -40 -12
-15 -27 -25 -34 -22 -8 3 -14 0 -14 -7 0 -6 -4 -9 -9 -5 -5 3 -12 1 -16 -5 -4
-6 11 -11 37 -12 24 -1 52 -2 62 -2 11 -1 21 -7 24 -14 2 -6 11 -12 20 -13 10
0 -8 -10 -38 -21 -43 -15 -83 -20 -180 -21 -69 -1 -149 2 -177 6 l-53 9 0 -85
0 -84 33 -7 c169 -35 478 1 570 67 60 42 65 61 49 204 -13 124 -22 157 -37
134z"/>
<path d="M1595 3868 c-16 -18 -28 -34 -26 -37 5 -8 -110 -70 -131 -70 -28 -1
-21 -19 11 -26 15 -3 32 -5 37 -4 21 4 68 -4 51 -8 -9 -2 -15 -9 -12 -14 4 -5
-1 -9 -10 -9 -8 0 -23 -4 -33 -9 -9 -5 -26 -12 -36 -16 -10 -3 -17 -8 -14 -11
8 -8 98 16 140 38 57 28 69 53 59 118 -5 30 -6 60 -4 67 8 19 1 15 -32 -19z"/>
<path d="M2806 3867 c-18 -26 -20 -40 -18 -122 2 -55 5 -62 30 -77 26 -15 56
-21 96 -19 25 1 14 44 -25 94 -36 44 -62 104 -55 123 9 24 -13 25 -28 1z"/>
<path d="M11657 3783 c-4 -3 -7 -14 -7 -23 0 -9 -9 -25 -19 -34 -26 -23 -36
-88 -19 -115 11 -18 9 -23 -10 -42 -15 -13 -21 -27 -17 -38 6 -15 12 -37 14
-52 1 -6 52 -31 56 -27 3 5 29 102 30 113 1 6 4 26 8 45 17 83 16 108 -4 113
-10 3 -19 13 -19 22 0 9 5 13 10 10 6 -3 10 3 10 14 0 20 -19 28 -33 14z"/>
<path d="M1736 3652 l-38 -26 6 -68 c6 -57 4 -70 -11 -85 -15 -15 -17 -27 -11
-62 4 -24 10 -46 12 -49 3 -3 42 19 86 48 53 35 80 59 80 71 0 11 -4 19 -9 19
-21 0 -41 34 -41 68 0 59 -12 112 -24 111 -6 0 -28 -12 -50 -27z"/>
<path d="M870 3645 c0 -8 -7 -15 -16 -15 -17 0 -102 -58 -123 -84 -10 -11 -10
-20 -1 -37 11 -20 17 -21 91 -16 l79 5 0 -34 c0 -39 47 -100 71 -91 10 4 8 7
-8 12 -12 4 -26 20 -32 35 -8 24 -7 28 5 23 20 -8 17 14 -6 39 -11 12 -20 28
-20 36 0 8 -9 30 -21 49 -20 32 -20 71 0 59 5 -3 7 3 4 14 -6 23 -23 27 -23 5z"/>
<path d="M10035 3510 c-3 -5 1 -10 9 -10 10 0 16 -9 16 -24 0 -33 20 -86 33
-86 7 0 7 4 -1 12 -20 20 -13 27 16 17 15 -5 39 -7 52 -5 14 2 29 5 33 5 5 1
6 5 2 10 -10 17 18 24 30 8 7 -10 18 -17 26 -18 8 0 1 -6 -15 -13 -22 -10 -25
-14 -12 -19 9 -4 26 -2 38 3 13 5 19 9 15 9 -4 1 -3 11 4 22 15 28 -1 38 -61
40 -32 1 -38 3 -22 7 32 9 32 24 1 39 -20 10 -34 10 -58 2 -24 -9 -35 -9 -44
0 -14 14 -54 14 -62 1z"/>
<path d="M643 3446 c-35 -35 -86 -63 -151 -81 -12 -4 -20 -11 -17 -16 4 -5 -1
-12 -9 -15 -9 -3 -16 -11 -16 -16 0 -6 7 -8 15 -4 9 3 15 0 15 -9 0 -7 10 -15
23 -18 21 -3 21 -4 2 -11 -11 -4 -33 -14 -49 -22 -16 -8 -66 -18 -110 -21 -67
-5 -76 -8 -51 -15 17 -4 36 -6 43 -3 8 3 44 8 80 11 37 3 82 10 100 16 18 5
36 8 39 5 3 -3 -12 -10 -33 -16 -22 -6 -49 -17 -60 -25 -12 -9 -40 -18 -62
-22 -28 -4 -46 -14 -57 -31 l-16 -24 26 17 c14 9 28 14 32 10 3 -3 2 -6 -3 -6
-5 0 -10 -9 -10 -20 0 -13 7 -20 18 -20 31 0 20 -17 -14 -24 -78 -13 -139 -18
-163 -12 -35 9 -22 27 14 20 16 -4 37 -1 48 5 16 9 14 11 -12 12 -17 1 -23 3
-12 6 22 6 22 23 0 24 -12 1 -9 4 7 8 18 5 1 10 -65 20 -49 7 -101 15 -115 17
-14 3 -38 8 -53 11 l-28 5 3 -123 3 -123 45 -14 c155 -46 465 -10 580 67 48
32 69 63 70 102 0 25 3 27 68 33 37 4 79 9 95 12 19 4 27 2 27 -9 0 -26 42
-69 86 -87 49 -21 98 -29 101 -16 3 18 29 26 86 26 64 0 73 10 25 28 -23 9
-35 9 -45 0 -10 -8 -17 -8 -25 0 -7 7 -22 12 -35 12 -14 0 -23 6 -23 15 0 9
-9 15 -24 15 -13 0 -30 7 -37 17 -13 15 -10 15 36 10 l50 -6 -55 18 c-116 37
-150 71 -150 148 0 21 -3 49 -7 62 -6 23 -8 23 -84 17 l-79 -6 -6 40 c-4 22
-12 40 -18 39 -6 0 -25 -15 -43 -33z"/>
<path d="M2745 3365 c-34 -28 -102 -62 -137 -69 -12 -2 -61 -11 -107 -20 -106
-20 -211 -20 -309 0 -95 19 -139 38 -173 70 -30 29 -47 18 -29 -17 10 -18 8
-25 -21 -48 -29 -25 -31 -29 -19 -51 12 -23 13 -23 27 -4 13 16 16 16 21 4 10
-30 74 -80 115 -90 23 -7 60 -16 82 -22 60 -16 268 -12 360 7 109 23 201 66
223 104 9 17 25 31 35 31 10 0 17 8 17 20 0 11 -7 20 -15 20 -20 0 -34 30 -28
63 7 33 -3 34 -42 2z"/>
<path d="M1637 3276 c-31 -21 -117 -62 -172 -81 -11 -4 -15 -9 -9 -12 6 -2 45
7 87 21 125 39 83 10 -93 -66 -14 -6 -33 -14 -42 -19 -10 -5 -28 -9 -42 -9
-13 0 -30 -7 -37 -17 -13 -15 -11 -16 13 -11 15 3 25 1 22 -3 -7 -11 19 -12
32 -1 5 5 32 7 59 4 l50 -5 -40 -18 c-39 -17 -39 -18 -11 -18 46 -1 137 28
181 58 48 32 69 84 59 148 -3 24 -10 45 -14 48 -4 3 -23 -6 -43 -19z"/>
<path d="M1717 3143 c-4 -21 -2 -52 5 -69 36 -99 -134 -201 -379 -225 -92 -10
-132 -10 -192 0 -98 17 -172 45 -205 78 -35 35 -44 23 -16 -24 14 -23 18 -39
11 -41 -17 -6 -13 -38 9 -79 13 -24 20 -57 20 -91 0 -47 4 -57 31 -81 32 -30
90 -52 130 -50 21 1 19 3 -8 11 -37 12 -40 20 -18 41 13 13 10 18 -20 38 -37
25 -41 46 -9 42 116 -14 259 -14 342 1 204 36 296 88 308 176 3 25 8 46 9 48
2 2 27 -4 56 -12 30 -9 84 -19 121 -23 l68 -6 0 30 c0 17 7 36 15 43 15 13 19
8 16 -21 -1 -9 11 -30 28 -48 33 -36 62 -42 54 -11 -3 11 -9 18 -13 15 -5 -3
-12 0 -16 6 -4 7 -3 9 3 6 6 -4 13 0 17 8 3 9 0 15 -10 15 -8 0 -13 4 -10 8 3
5 -5 20 -17 33 -12 13 -32 53 -43 89 l-21 65 -49 6 c-62 8 -173 39 -180 50
-13 21 -32 6 -37 -28z"/>
<path d="M3142 3091 c-6 -16 -6 -34 -1 -42 13 -20 11 -29 -5 -29 -11 0 -13
-16 -9 -82 7 -109 17 -127 83 -160 107 -53 310 -60 509 -18 52 11 96 18 98 16
5 -5 -112 -56 -130 -56 -9 0 -19 -4 -22 -10 -3 -5 -15 -10 -26 -10 -11 0 -17
-4 -14 -10 3 -5 -2 -10 -12 -10 -10 0 -25 -5 -33 -10 -10 -7 9 -9 62 -6 61 2
78 0 83 -12 6 -17 8 -15 -30 -30 -69 -25 -146 -35 -251 -30 -134 6 -222 30
-267 72 -18 17 -26 25 -17 19 9 -7 22 -13 28 -13 7 0 12 -4 12 -9 0 -10 42
-23 49 -15 3 3 -1 10 -9 15 -11 7 -3 8 25 4 l40 -6 -45 25 c-53 28 -93 66
-127 121 -21 35 -24 37 -18 12 4 -20 -12 -110 -19 -107 -1 1 -23 7 -51 14 -42
11 -55 20 -82 60 -24 35 -31 55 -27 72 13 53 11 57 -51 78 -33 11 -63 24 -66
28 -3 5 -7 32 -8 60 -1 29 -3 53 -5 55 -2 2 -18 -8 -35 -23 -18 -15 -60 -42
-94 -61 l-62 -34 45 5 c38 4 41 4 20 -5 -23 -10 -24 -12 -6 -18 19 -7 19 -8
-2 -13 -16 -5 -22 -14 -22 -33 0 -20 4 -26 15 -22 8 4 17 2 20 -3 3 -5 -3 -11
-12 -13 -14 -4 -13 -5 4 -6 12 0 25 4 28 9 3 6 15 10 25 10 10 0 31 16 46 35
14 19 30 33 34 30 14 -8 10 -116 -5 -144 -17 -33 -59 -64 -138 -102 -56 -27
-58 -29 -24 -23 38 6 38 6 25 -15 -7 -11 -17 -21 -23 -21 -5 0 8 -9 30 -19 29
-14 34 -20 20 -21 -11 -1 -14 -4 -7 -7 6 -2 12 -9 12 -14 0 -11 -101 -59 -125
-59 -13 0 -16 -3 -9 -10 7 -7 28 -4 65 9 137 48 171 76 174 141 1 22 4 42 6
44 2 2 33 -2 69 -10 36 -7 102 -14 147 -14 99 0 103 -5 96 -106 l-6 -72 64
-31 c88 -42 154 -55 294 -55 126 -1 227 14 308 45 53 21 99 26 60 7 -13 -6
-23 -15 -23 -20 0 -4 -6 -8 -14 -8 -7 0 -25 -9 -39 -20 -14 -11 -33 -20 -44
-20 -15 -1 -13 -3 7 -15 l25 -14 -23 -1 c-14 0 -21 -4 -16 -11 3 -6 19 -9 35
-5 44 8 44 -10 -1 -31 -48 -22 -52 -37 -7 -28 84 19 171 83 182 137 8 34 10
34 174 5 112 -21 125 -25 133 -47 5 -15 5 -27 -2 -34 -5 -5 -10 -25 -10 -43 0
-25 -4 -31 -15 -27 -22 9 -19 -34 5 -74 24 -40 24 -40 3 -38 -31 2 -18 -51 26
-103 58 -69 102 -81 316 -83 147 -1 181 1 253 20 123 33 174 62 196 111 13 29
17 52 12 81 l-6 40 123 0 c68 0 151 3 185 6 l61 7 15 -54 c19 -66 17 -159 -3
-159 -22 0 -3 -52 30 -82 17 -16 35 -28 40 -28 6 0 7 -5 4 -10 -4 -7 -19 -4
-41 10 -48 27 -58 26 -48 -7 4 -16 7 -70 6 -121 -2 -114 12 -139 103 -181 91
-43 157 -55 295 -55 193 1 318 34 390 103 l39 37 -1 100 c-1 54 2 116 7 137 7
37 9 39 39 32 121 -25 247 -45 284 -45 36 0 43 3 38 16 -8 21 4 40 15 23 4 -7
3 -21 -3 -32 -5 -10 -7 -28 -5 -39 3 -11 -1 -45 -10 -76 -24 -90 -26 -191 -3
-229 13 -22 17 -43 13 -71 -10 -74 45 -131 167 -172 35 -12 72 -19 84 -17 23
4 12 11 -36 21 -16 4 -28 11 -28 16 0 6 9 6 26 0 33 -13 47 -13 39 0 -3 5 -1
10 5 10 6 0 8 5 5 10 -4 6 7 10 27 10 22 0 28 3 20 9 -14 8 76 21 151 21 24 0
48 7 59 17 10 9 18 11 18 5 0 -7 11 -5 29 6 17 9 33 13 38 8 4 -5 2 -11 -4
-13 -18 -6 -16 -23 2 -23 10 0 15 -10 16 -27 0 -16 3 -23 5 -16 4 8 10 7 22
-5 17 -16 16 -18 -18 -35 l-35 -17 40 6 c122 20 210 84 207 152 -3 74 -9 148
-17 196 -9 55 0 66 50 65 17 0 142 28 278 63 244 61 248 63 269 95 27 45 76
64 178 70 47 3 91 10 98 16 18 14 15 50 -8 75 -26 27 -40 28 -40 3 0 -31 -11
-50 -25 -45 -7 3 -16 1 -20 -5 -3 -6 -22 -11 -41 -11 -19 0 -34 -3 -34 -7 0
-5 -20 -16 -45 -27 -25 -10 -59 -31 -75 -48 -23 -23 -46 -32 -107 -44 -42 -8
-100 -21 -127 -29 -63 -19 -86 -19 -86 0 0 8 -7 15 -16 15 -10 0 -14 -6 -10
-15 3 -8 0 -15 -7 -15 -17 0 -37 21 -37 38 0 7 -7 20 -16 29 -14 14 -16 14
-21 -6 -7 -28 -21 -27 -25 1 -2 13 -11 24 -23 27 -11 2 -23 8 -27 14 -9 15 10
37 31 37 9 0 23 5 31 10 11 7 2 9 -31 8 -26 0 -51 -3 -57 -7 -5 -3 -17 -37
-25 -76 -18 -76 -27 -87 -93 -106 -24 -7 -44 -17 -44 -21 0 -4 -11 -8 -25 -8
-14 0 -25 -4 -25 -9 0 -5 -11 -12 -25 -15 -16 -4 -25 -13 -25 -26 0 -14 10
-21 43 -28 l42 -8 -91 -22 c-97 -23 -123 -26 -172 -16 -23 5 -28 10 -25 25 6
23 11 24 34 3 16 -15 17 -14 12 4 -3 14 -17 22 -41 27 -21 4 -50 13 -67 20
-16 7 -50 18 -75 24 -95 21 -133 32 -161 47 -44 22 -26 35 29 19 26 -7 83 -15
127 -18 l80 -5 -76 17 c-42 9 -87 24 -100 33 -13 8 -41 18 -61 22 -23 4 -38
13 -38 21 0 8 5 15 10 15 6 0 10 5 10 11 0 16 -36 59 -44 52 -3 -3 -6 3 -6 14
0 12 -6 23 -13 26 -22 8 -40 90 -33 142 6 36 4 44 -7 40 -7 -3 -82 8 -166 25
-84 16 -157 27 -162 24 -5 -3 -9 -20 -9 -38 0 -19 -11 -49 -25 -70 -14 -20
-25 -41 -25 -46 0 -5 -6 -7 -14 -4 -22 8 -47 -24 -40 -52 4 -15 2 -24 -6 -24
-6 0 -8 -5 -5 -10 9 -15 64 19 80 50 11 20 14 21 15 7 0 -17 -21 -41 -70 -81
-12 -10 -55 -30 -94 -44 -39 -14 -86 -30 -105 -37 -21 -8 -29 -15 -22 -20 17
-10 -17 -34 -47 -35 -14 0 -26 -8 -31 -22 -12 -31 0 -33 45 -9 42 23 74 27 74
11 0 -5 6 -10 14 -10 8 0 18 -5 21 -10 4 -6 3 -10 -2 -9 -4 1 -21 -4 -38 -11
-35 -16 -295 -24 -328 -10 -18 7 -12 9 28 11 31 1 39 4 23 6 -28 4 -36 17 -19
27 5 4 32 1 59 -5 47 -11 102 -7 102 9 0 10 -138 42 -181 42 -42 0 -107 20
-140 41 -29 20 -17 39 13 20 11 -7 46 -14 77 -17 33 -2 48 0 36 4 -11 4 -42
18 -68 30 -27 12 -52 22 -56 22 -12 0 -62 52 -56 58 3 3 13 -4 23 -16 17 -20
43 -24 58 -9 9 8 -17 33 -44 41 -12 4 -22 13 -22 21 0 7 -7 15 -15 19 -18 7
-20 42 -2 50 10 5 10 7 0 12 -7 3 -13 12 -13 19 0 10 8 11 35 4 24 -7 41 -6
57 2 22 12 22 12 3 19 -11 4 -23 6 -27 4 -8 -5 -118 105 -118 119 0 6 10 1 23
-10 30 -28 55 -39 102 -46 35 -6 37 -5 15 5 -14 6 -38 17 -54 24 -16 8 -32 11
-37 8 -5 -3 -8 -1 -7 3 2 5 -12 24 -29 42 -33 33 -39 56 -34 129 l2 32 -166 0
c-157 0 -165 -1 -165 -19 0 -11 -4 -23 -10 -26 -6 -4 -10 17 -10 57 0 84 -9
98 -47 69 -15 -13 -30 -32 -33 -42 -5 -22 -29 -37 -104 -65 -27 -11 -51 -25
-54 -33 -3 -10 0 -12 11 -8 10 4 14 2 11 -6 -3 -9 5 -13 23 -12 49 0 33 -28
-27 -50 -47 -16 -80 -19 -215 -19 -146 1 -167 3 -235 27 -58 20 -84 36 -112
67 -23 26 -35 47 -31 57 5 12 9 9 21 -13 17 -35 51 -64 68 -57 7 2 15 0 19 -6
8 -14 105 -14 105 -1 0 6 -7 10 -16 10 -23 0 -111 46 -147 76 -38 32 -78 106
-79 145 -1 16 -6 33 -12 37 -11 8 -69 23 -168 42 -32 6 -60 15 -63 20 -11 19
-14 136 -4 168 7 21 7 42 1 60 -5 16 -6 37 -1 50 5 13 5 30 1 39 -7 12 -12 10
-26 -11 -9 -14 -23 -26 -31 -26 -8 0 -15 -3 -15 -8 0 -12 -94 -48 -175 -67
-131 -31 -352 -16 -449 30 -42 20 -57 33 -65 58 -7 17 -8 33 -3 35 10 3 4 50
-8 57 -5 3 -13 -8 -18 -24z"/>
<path d="M5401 2841 c-60 -22 -73 -44 -43 -73 19 -20 33 -23 96 -23 69 0 75 2
114 35 22 19 41 40 41 46 3 34 -131 44 -208 15z"/>
<path d="M1697 2761 c-21 -22 -58 -48 -83 -58 -24 -10 -42 -22 -41 -28 2 -5
-12 -15 -32 -21 -27 -9 -30 -12 -13 -13 12 -1 21 -7 20 -13 -2 -7 5 -12 15
-12 9 1 17 -2 17 -6 0 -9 -62 -40 -81 -40 -7 0 -10 -2 -7 -5 10 -10 115 16
175 45 82 38 102 73 82 143 l-14 47 -38 -39z"/>
<path d="M5073 2683 l3 -88 119 1 c83 0 138 5 177 17 50 15 77 32 67 42 -2 1
-47 8 -99 13 -123 14 -192 35 -235 73 l-35 31 3 -89z"/>
<path d="M0 2710 c0 -5 8 -10 18 -10 16 -1 16 -1 -1 -14 -16 -12 -17 -29 -15
-154 l3 -141 58 35 c58 36 68 53 43 73 -8 7 -20 50 -27 99 -6 48 -19 95 -27
105 -16 18 -52 23 -52 7z"/>
<path d="M6598 2606 c-79 -21 -96 -46 -55 -84 23 -21 92 -40 256 -67 52 -9
102 -20 110 -25 9 -4 60 -10 114 -11 l97 -4 0 68 c0 37 -4 67 -8 67 -5 0 -17
-9 -27 -20 -39 -43 -194 -18 -246 40 -44 48 -142 63 -241 36z"/>
<path d="M688 2535 c-6 -6 -269 -77 -486 -131 -125 -31 -151 -40 -138 -50 9
-6 16 -17 16 -24 0 -10 3 -10 15 0 8 7 13 16 10 20 -3 4 30 15 73 24 42 10 91
21 108 27 42 13 54 11 54 -5 0 -8 6 -16 13 -19 6 -2 0 -2 -15 0 -14 2 -29 -1
-33 -6 -4 -7 3 -11 17 -11 13 0 30 -6 37 -12 11 -10 14 -10 18 0 3 6 16 12 30
12 21 0 24 -2 13 -15 -11 -13 -8 -15 15 -15 18 0 38 -13 66 -42 34 -37 42 -41
57 -30 18 13 25 16 56 26 18 6 18 7 1 26 -19 21 -11 45 12 36 20 -8 33 1 27
19 -3 7 -12 11 -20 8 -9 -3 -14 1 -14 12 0 12 5 15 16 11 16 -6 44 9 44 24 0
4 -17 10 -37 13 -21 3 -53 9 -71 13 -25 5 -36 2 -46 -11 -9 -12 -20 -16 -35
-12 -18 4 -22 2 -19 -16 2 -17 9 -21 31 -19 19 2 27 -2 27 -13 0 -8 -8 -15
-18 -15 -10 0 -23 -5 -29 -11 -13 -13 -33 -4 -33 17 0 8 -4 14 -10 14 -5 0
-10 6 -10 14 0 17 39 48 51 41 4 -3 9 1 12 9 7 16 85 30 101 17 15 -13 82 -24
95 -16 7 4 6 17 -4 41 -14 33 -13 34 8 29 12 -3 31 1 42 9 19 15 19 15 -11 16
-17 0 -33 -2 -36 -5z"/>
<path d="M6228 2505 c-6 -6 1 -126 8 -134 5 -5 126 -30 150 -31 12 0 32 8 45
19 31 25 15 45 -48 60 -59 15 -97 35 -126 66 -13 14 -26 23 -29 20z"/>
<path d="M820 2378 c0 -15 -6 -42 -14 -60 -15 -35 -49 -142 -53 -168 -15 -94
-21 -121 -22 -97 -1 29 -25 38 -35 12 -8 -21 -29 -19 -83 10 -27 13 -113 38
-193 56 -80 17 -172 37 -205 45 -55 13 -206 44 -213 44 -1 0 -1 -62 0 -137 l3
-137 305 -68 c328 -73 407 -81 439 -49 11 11 29 50 40 88 34 114 101 363 101
377 0 8 -11 21 -25 30 -14 9 -25 24 -25 34 0 9 -5 24 -10 32 -8 12 -10 9 -10
-12z"/>
<path d="M7679 2217 c-24 -17 -43 -37 -43 -42 -2 -23 120 -12 237 21 36 11 16
31 -40 43 -86 17 -107 14 -154 -22z"/>
<path d="M9025 2123 c-71 -15 -84 -56 -28 -84 56 -28 61 -36 62 -100 0 -33 3
-64 5 -68 3 -5 30 -11 61 -14 72 -7 119 -34 123 -70 4 -34 29 -41 137 -41 81
0 123 14 159 49 22 23 20 62 -4 75 -11 6 -20 20 -20 30 0 26 -26 26 -33 0 -4
-15 0 -20 14 -20 15 0 19 -7 19 -32 0 -33 0 -33 -13 -9 -17 34 -41 41 -32 10
4 -16 3 -20 -3 -10 -8 10 -14 11 -32 1 -25 -13 -22 -15 -45 30 -10 19 -27 41
-37 48 -19 14 -19 14 1 48 17 28 18 34 5 34 -27 0 -99 42 -129 77 -23 26 -42
35 -84 43 -55 10 -90 11 -126 3z"/>
<path d="M2103 2052 c-6 -4 -11 -16 -10 -26 1 -10 -4 -21 -12 -24 -10 -3 -12
0 -8 12 7 18 -17 23 -28 6 -3 -5 -13 -10 -22 -10 -9 0 -35 -8 -57 -19 -23 -10
-52 -23 -66 -29 -18 -8 -20 -11 -7 -11 10 -1 44 10 77 24 81 34 90 31 36 -10
-26 -19 -50 -35 -55 -35 -4 0 -29 -22 -54 -50 -25 -27 -51 -50 -57 -50 -5 0
-10 -9 -10 -21 0 -12 -8 -23 -20 -26 -11 -3 -20 -10 -20 -15 0 -6 -7 -8 -15
-4 -9 3 -15 0 -15 -10 0 -8 -19 -24 -42 -34 -24 -11 -38 -20 -33 -20 6 0 -1
-10 -14 -20 -30 -26 -71 -25 -122 0 -35 18 -137 45 -269 70 -25 5 -76 15 -115
23 -38 8 -78 13 -88 11 -11 -2 -22 6 -29 22 -15 32 -28 27 -53 -20 l-20 -37
24 -20 c13 -10 32 -19 42 -19 10 0 105 -20 211 -44 253 -58 311 -68 356 -61
20 4 138 45 262 92 333 127 335 128 290 173 -15 15 -23 43 -31 103 -6 45 -11
83 -12 84 -2 1 -8 -1 -14 -5z"/>
<path d="M10010 1901 c0 -33 -3 -66 -6 -75 -8 -21 38 -21 160 -1 136 22 142
43 19 70 -89 20 -153 43 -153 56 0 5 -4 9 -10 9 -6 0 -10 -26 -10 -59z"/>
<path d="M8800 1933 c-42 -22 -44 -39 -7 -67 24 -18 42 -21 121 -21 110 0 129
10 124 64 l-3 36 -100 3 c-81 2 -107 -1 -135 -15z"/>
<path d="M3808 1840 c-36 -9 -439 -184 -505 -220 -19 -10 -30 -21 -23 -25 5
-3 22 3 36 14 15 12 37 21 51 21 13 0 46 12 74 26 28 14 48 20 44 14 -4 -6
-18 -15 -31 -20 -17 -7 -22 -14 -17 -26 6 -16 7 -15 19 1 9 12 21 16 39 13 22
-5 25 -3 20 16 -5 15 -4 17 3 7 5 -7 15 -10 21 -7 6 4 11 0 11 -8 0 -9 7 -16
16 -16 8 0 13 4 10 9 -3 5 0 14 8 20 10 8 15 9 18 1 4 -13 33 -15 66 -5 16 6
22 3 22 -9 0 -9 5 -16 10 -16 6 0 10 9 10 19 0 25 16 36 24 16 3 -8 13 -15 21
-15 12 0 15 6 10 21 -5 13 -3 19 3 15 13 -8 64 19 82 44 8 11 22 20 31 20 9 0
21 12 28 26 10 23 9 26 -4 21 -8 -4 -15 -2 -15 3 0 5 -8 10 -17 13 -10 2 9 3
42 3 33 -1 65 -5 72 -9 6 -4 14 -3 17 1 14 22 -137 46 -196 32z"/>
<path d="M10862 1808 c-21 -26 -73 -46 -137 -53 -148 -16 -633 -87 -665 -97
-45 -14 -60 -26 -60 -48 0 -49 85 -75 187 -59 140 22 208 23 257 4 26 -10 56
-29 66 -42 19 -24 21 -24 87 -13 37 6 110 17 161 26 134 21 181 49 168 100 -4
14 -16 28 -26 31 -17 4 -20 16 -22 86 -3 67 -5 78 -16 65z"/>
<path d="M3227 1784 c-4 -4 -7 -16 -7 -27 0 -10 -9 -21 -20 -24 -18 -5 -24
-15 -21 -36 1 -4 -10 -5 -23 -1 -13 3 -40 -2 -61 -10 -21 -9 -52 -16 -71 -16
-18 0 -36 -5 -39 -11 -5 -7 -15 -5 -30 5 -23 15 -25 14 -62 -32 -21 -26 -47
-63 -57 -82 -10 -19 -31 -46 -45 -60 -15 -14 -25 -33 -23 -43 4 -21 -24 -46
-53 -47 -11 0 -33 14 -48 30 -16 17 -34 30 -41 30 -7 0 -12 10 -12 23 1 18 -4
22 -24 20 -14 -1 -19 0 -12 3 18 8 15 44 -4 44 -10 0 -14 -5 -10 -15 5 -13 2
-14 -17 -4 -12 6 -29 19 -37 29 -13 17 -18 17 -45 5 l-30 -14 29 2 c16 1 31
-4 33 -10 3 -9 -8 -13 -39 -13 -23 0 -60 -5 -81 -11 -28 -7 -42 -7 -52 1 -9 8
-17 7 -28 -4 -10 -10 -30 -14 -64 -12 -58 4 -74 11 -66 31 7 20 -4 19 -38 -6
-33 -23 -37 -44 -11 -58 9 -5 89 -12 177 -16 174 -8 181 -9 258 -58 130 -83
213 -78 319 18 61 54 149 94 181 82 9 -3 14 -32 16 -84 2 -76 1 -81 -23 -97
-14 -9 -26 -22 -26 -29 0 -27 29 -36 380 -117 172 -39 263 -60 480 -112 127
-30 196 -41 253 -41 77 -1 77 0 114 39 48 52 213 396 213 444 0 15 -11 25 -35
36 -23 9 -35 21 -35 34 0 35 -17 30 -29 -9 -6 -21 -18 -44 -26 -51 -8 -7 -15
-17 -15 -22 0 -5 -7 -16 -15 -24 -9 -10 -13 -24 -9 -40 5 -19 -2 -33 -30 -64
-20 -22 -36 -43 -36 -48 0 -4 -7 -16 -15 -26 -12 -16 -17 -17 -30 -6 -8 7 -22
10 -30 6 -8 -3 -45 2 -83 10 -123 29 -170 39 -302 64 -25 5 -79 16 -120 24
-189 39 -233 48 -355 70 -141 27 -203 45 -206 61 -2 12 81 62 131 80 l35 12
-3 73 c-4 77 -13 116 -25 104z"/>
<path d="M4220 1771 c0 -6 7 -11 15 -11 9 0 12 -6 9 -15 -4 -9 0 -15 10 -15
20 0 21 -17 1 -36 -17 -17 -20 -54 -5 -54 6 0 9 -5 8 -12 -2 -7 2 -12 7 -13
22 -1 36 -17 26 -28 -9 -11 0 -91 11 -102 3 -3 22 46 43 109 53 158 50 166
-72 182 -37 4 -53 3 -53 -5z"/>
<path d="M7947 1742 c-38 -39 -35 -76 8 -123 35 -39 48 -89 23 -89 -33 1 -145
67 -165 98 -26 40 -41 24 -18 -20 10 -21 12 -34 5 -36 -15 -5 -12 -39 10 -112
12 -39 16 -66 10 -68 -17 -6 -11 -53 11 -89 18 -29 19 -38 9 -63 -28 -67 24
-139 132 -182 35 -15 86 -29 113 -33 l50 -7 -22 21 c-13 12 -23 23 -23 24 0 1
32 2 70 1 39 -1 68 1 65 4 -3 3 -28 13 -56 23 -91 32 -80 43 39 41 140 -2 281
29 420 94 43 20 64 36 68 52 8 30 1 36 -25 22 -14 -7 -21 -7 -21 0 0 5 5 10
10 10 20 0 11 48 -10 53 -11 3 -20 1 -20 -4 0 -5 -5 -9 -10 -9 -10 0 -22 -8
-55 -37 -7 -7 -23 -13 -34 -13 -11 0 -22 -4 -26 -9 -3 -5 -19 -13 -36 -16 -22
-5 -28 -10 -19 -15 20 -12 129 -1 162 16 28 15 29 14 19 -4 -15 -27 -121 -78
-206 -98 -52 -12 -98 -15 -180 -11 -111 5 -251 31 -270 49 -7 7 -3 8 10 5 41
-11 135 -18 146 -11 7 4 43 8 81 10 38 1 101 8 141 16 l72 13 -110 6 c-128 8
-205 18 -205 29 0 5 -25 16 -55 25 -56 18 -78 43 -27 31 15 -4 82 -9 149 -13
157 -7 284 14 385 64 72 36 98 69 98 124 0 12 5 19 13 16 6 -2 12 -18 13 -36
0 -52 17 -56 224 -56 166 0 192 2 249 23 63 21 111 55 111 75 0 6 -7 18 -15
27 -14 16 -21 63 -24 157 -1 31 -2 32 -27 21 l-26 -12 22 -18 22 -18 -30 -30
c-17 -16 -25 -30 -18 -30 6 0 18 6 25 13 10 10 12 9 9 -3 -2 -8 -6 -17 -9 -20
-4 -3 -14 -25 -22 -50 -12 -34 -17 -41 -22 -27 -4 9 -2 24 5 32 6 8 9 19 5 25
-10 17 -35 -8 -35 -36 0 -13 -9 -28 -19 -34 -27 -14 -34 -13 -27 5 3 8 1 15
-3 15 -5 0 -11 -7 -15 -15 -8 -21 -24 -19 -22 3 1 12 -7 18 -26 20 -21 3 -27
9 -30 30 -2 20 -9 27 -25 27 -13 0 -24 5 -25 10 -1 6 -8 16 -15 24 -16 15 -8
27 22 34 11 3 0 5 -25 6 -25 1 -94 13 -155 25 -60 13 -111 23 -113 21 -1 -1 2
-14 9 -28 18 -40 3 -73 -57 -122 -79 -64 -155 -97 -229 -99 -144 -3 -280 5
-262 15 9 6 49 12 88 14 39 2 74 7 77 10 12 12 -24 25 -55 20 -31 -6 -103 20
-103 37 0 15 -89 98 -104 98 -10 0 -17 15 -22 45 -3 25 -9 45 -13 45 -4 0 -19
-13 -34 -28z"/>
<path d="M11840 1579 c-19 -28 -58 -81 -87 -117 -60 -76 -59 -96 8 -107 43 -7
91 -26 121 -47 15 -11 22 -6 52 27 52 59 54 74 17 107 -39 35 -71 37 -71 6 -1
-21 -2 -21 -13 -6 -9 12 -17 14 -30 7 -13 -8 -17 -6 -17 7 0 16 -2 16 -20 -1
-11 -10 -20 -24 -20 -32 0 -7 -7 -13 -15 -13 -8 0 -15 5 -15 11 0 5 4 7 10 4
5 -3 7 0 5 8 -3 7 8 29 24 48 17 19 36 45 43 59 7 14 21 32 31 41 11 9 18 23
16 32 -3 12 -15 2 -39 -34z"/>
<path d="M9660 1543 c0 -52 0 -52 38 -63 45 -11 109 -57 117 -83 4 -9 30 -33
60 -51 68 -44 105 -92 105 -138 0 -25 5 -38 18 -43 34 -14 319 -18 384 -6 128
24 208 62 208 98 0 18 -49 63 -69 63 -11 0 -13 16 -9 80 3 44 4 80 3 80 -1 0
-12 -9 -25 -20 -12 -11 -48 -29 -79 -41 -52 -20 -68 -21 -211 -15 -156 7 -237
22 -352 66 -83 32 -131 60 -160 93 l-28 31 0 -51z"/>
<path d="M9235 1295 c-47 -46 -33 -94 47 -154 19 -14 177 -45 186 -37 10 10
-21 36 -42 36 -13 0 -37 13 -56 30 -33 30 -54 32 -43 5 3 -8 0 -15 -6 -15 -6
0 -11 10 -12 23 0 32 -9 110 -14 125 -7 19 -34 14 -60 -13z"/>
<path d="M5621 1292 c-2 -21 -72 -88 -122 -115 -25 -13 -54 -30 -65 -36 -10
-6 -45 -18 -76 -27 -32 -8 -58 -19 -58 -24 0 -15 24 -24 28 -12 2 7 13 12 25
12 21 0 21 0 1 -18 -11 -11 -26 -22 -34 -25 -10 -3 -11 -6 -2 -6 7 -1 4 -9 -8
-21 -12 -12 -18 -26 -14 -31 4 -7 -1 -9 -14 -5 -17 6 -20 1 -26 -37 l-7 -44
-90 -6 c-110 -8 -169 -1 -169 21 0 13 -3 13 -12 4 -18 -18 -46 -15 -44 4 0 9
-5 19 -11 21 -7 3 -13 -3 -13 -12 0 -12 -6 -15 -22 -10 -66 19 -87 31 -97 52
-6 13 -19 23 -29 23 -24 0 -92 68 -92 91 0 12 -5 16 -15 13 -8 -4 -15 -16 -15
-27 0 -15 -3 -18 -11 -10 -8 8 -6 19 7 39 10 16 19 30 19 32 1 1 16 -3 33 -9
62 -22 69 -4 9 25 -32 16 -75 48 -96 72 -45 51 -55 55 -46 16 5 -23 -1 -35
-34 -69 -92 -98 -50 -208 104 -272 135 -57 231 -74 410 -75 97 -1 184 4 220
12 80 17 211 60 258 84 54 27 127 96 143 135 17 40 18 90 2 95 -6 2 -17 38
-24 79 -6 40 -12 68 -13 61z"/>
<path d="M8667 1226 c-8 -9 -37 -27 -63 -42 -27 -15 -53 -33 -57 -40 -4 -8
-12 -14 -17 -14 -14 0 -49 -37 -42 -44 3 -3 18 -6 35 -6 41 0 29 -22 -24 -42
-62 -24 -25 -22 54 2 104 32 163 96 150 163 -7 34 -17 41 -36 23z"/>
<path d="M11885 1210 c-27 -26 -42 -31 -135 -44 -222 -31 -283 -37 -343 -30
-63 7 -143 40 -166 68 -23 28 -28 18 -35 -63 -6 -65 -11 -82 -32 -102 -33 -31
-30 -56 10 -94 70 -65 193 -74 520 -36 196 23 239 36 257 75 13 28 -12 86 -37
86 -8 0 -12 -4 -9 -10 3 -5 -1 -22 -9 -37 l-15 -28 2 37 c1 21 5 38 9 38 3 0
8 38 10 85 2 47 3 85 3 85 0 0 -14 -13 -30 -30z"/>
<path d="M9076 1123 c-15 -15 -4 -62 23 -98 23 -31 27 -45 24 -79 -5 -41 -5
-41 38 -53 107 -30 399 -84 447 -82 21 1 17 4 -18 14 -45 12 -45 12 -18 23 45
19 42 31 -12 38 -64 8 -71 19 -14 20 31 1 52 8 67 22 14 13 36 22 54 22 18 0
33 6 37 15 4 12 -4 15 -42 16 -26 0 -56 3 -67 6 -11 2 -74 13 -140 23 -140 22
-265 58 -295 85 -11 10 -23 15 -27 12 -3 -4 -16 -1 -29 7 -12 8 -24 12 -28 9z"/>
<path d="M6961 1093 c-2 -27 -65 -73 -127 -92 -102 -32 -104 -34 -104 -94 0
-48 -3 -54 -39 -84 -62 -52 -101 -63 -217 -63 -117 0 -182 17 -256 68 -59 41
-95 48 -221 46 -83 -2 -122 2 -167 16 -81 26 -98 36 -120 73 -22 36 -24 30
-20 -56 2 -45 -1 -50 -44 -91 -63 -58 -60 -107 9 -154 56 -39 122 -54 277 -61
l147 -7 55 -38 c64 -44 131 -64 242 -73 123 -9 237 11 301 53 57 37 85 79 76
113 -8 31 20 57 81 77 71 23 131 59 155 93 25 34 26 54 7 84 -8 12 -16 51 -17
87 -2 57 -16 136 -18 103z"/>
<path d="M7056 690 c-9 -24 -16 -69 -16 -110 0 -57 6 -83 30 -138 17 -37 45
-81 62 -99 31 -32 120 -77 173 -87 25 -5 23 -3 -11 13 -23 11 -45 24 -48 30
-4 6 -16 11 -26 11 -18 0 -69 56 -74 82 -2 7 -11 31 -22 53 -13 30 -19 71 -22
163 -4 134 -17 155 -46 82z"/>
<path d="M9780 653 c-30 -36 -62 -72 -71 -81 -128 -138 -409 -456 -409 -463 0
-5 -10 -25 -22 -43 l-23 -34 -10 31 c-10 33 -10 33 -120 56 -27 5 -79 17 -115
25 -36 9 -85 17 -110 20 -25 3 -72 12 -105 21 -82 21 -143 34 -188 40 -20 2
-46 9 -56 15 -11 5 -39 10 -64 10 -24 0 -47 3 -51 7 -8 9 -94 32 -119 33 -9 0
-35 11 -57 25 -48 30 -53 24 -52 -66 0 -66 -1 -68 -44 -113 -24 -26 -44 -50
-44 -55 0 -20 42 -41 123 -60 84 -20 115 -21 662 -21 l574 0 23 29 c13 15 108
120 211 232 l188 204 -26 18 c-24 18 -25 23 -25 122 0 57 -3 106 -7 108 -5 2
-33 -25 -63 -60z"/>
<path d="M8314 581 c11 -18 -7 -74 -26 -78 -10 -3 -18 -9 -18 -13 0 -5 -12
-15 -27 -23 -16 -8 -57 -31 -93 -50 -63 -34 -209 -92 -299 -118 -84 -25 -23
-20 80 6 123 31 288 95 344 133 22 15 51 45 66 67 25 37 26 40 10 62 -15 21
-49 34 -37 14z"/>
<path d="M10338 495 c-107 -18 -262 -65 -323 -98 -11 -6 -33 -17 -50 -25 -49
-24 -109 -77 -151 -134 -33 -43 -43 -67 -52 -123 -15 -95 -9 -115 34 -115 l35
0 -20 27 c-34 48 -32 126 3 182 8 12 11 11 17 -5 7 -17 8 -17 8 4 1 38 46 102
71 102 6 0 10 3 10 8 0 12 58 34 70 27 6 -4 9 -14 6 -22 -3 -8 -1 -11 4 -8 16
10 12 32 -7 40 -14 5 -7 12 32 31 28 13 62 23 78 24 15 0 27 4 27 10 0 29 348
88 364 61 5 -7 -1 -11 -16 -11 -17 0 -19 -3 -9 -9 11 -7 10 -10 -5 -14 -10 -2
1 -6 26 -7 35 -1 41 -3 25 -10 -11 -5 -15 -9 -9 -9 6 -1 16 -12 22 -26 11 -23
10 -25 -16 -26 -15 -1 -31 -1 -37 0 -13 1 -55 -64 -55 -84 0 -8 5 -15 10 -15
6 0 10 9 10 20 0 15 7 20 24 20 31 0 116 56 116 76 0 20 14 18 35 -6 17 -19
18 -19 54 15 42 40 51 43 51 15 0 -11 -6 -20 -13 -20 -7 0 -18 -9 -25 -20 -10
-17 -10 -20 4 -20 8 0 12 5 9 10 -3 6 1 10 9 10 9 0 16 -8 16 -19 0 -14 -5
-18 -20 -14 -11 3 -27 0 -35 -7 -12 -10 -21 -10 -38 -2 -45 22 -66 21 -69 -2
-2 -14 -11 -22 -30 -24 -31 -4 -43 -26 -23 -42 13 -10 11 -15 -8 -30 -17 -13
-37 -16 -86 -14 -35 2 -69 0 -75 -5 -11 -9 -14 -10 -38 -12 -7 0 1 -5 18 -10
25 -7 32 -15 32 -34 0 -14 -4 -25 -8 -25 -4 0 -10 -7 -14 -15 -4 -12 3 -15 35
-15 22 0 38 4 34 9 -3 5 2 17 12 26 14 14 14 18 2 26 -8 5 -21 9 -29 9 -13 0
-13 1 0 10 22 14 40 12 40 -5 0 -8 7 -15 15 -15 18 0 20 -17 3 -23 -7 -2 -10
-8 -6 -12 4 -4 15 -2 24 6 14 11 18 11 29 -5 9 -12 20 -16 34 -11 15 4 21 2
21 -9 0 -17 -49 -18 -63 -1 -5 6 -6 2 -3 -8 3 -10 6 -23 6 -28 0 -11 84 0 88
13 7 17 33 7 42 -17 5 -14 15 -25 22 -25 7 0 24 -3 38 -6 18 -4 21 -3 11 4
-17 12 -1 23 41 28 16 2 40 16 53 31 19 22 24 24 25 11 0 -9 -8 -23 -18 -30
-34 -24 -34 -45 0 -52 17 -3 33 -4 36 -1 3 3 0 5 -6 5 -21 0 -12 25 13 37 22
10 25 9 25 -8 0 -10 5 -19 11 -19 6 0 9 11 7 25 -2 13 0 24 5 25 27 1 29 0 18
-13 -12 -15 -5 -27 14 -27 18 0 105 79 105 96 0 7 -6 11 -14 8 -25 -10 -28 28
-4 50 26 24 38 26 56 9 10 -10 9 -20 -9 -55 -29 -57 -60 -98 -74 -98 -11 0
-55 -44 -55 -55 0 -3 43 -5 96 -5 88 0 95 1 88 18 -5 9 -9 71 -10 137 -1 66
-7 132 -13 148 -17 43 -62 81 -145 122 -63 31 -84 37 -117 32 -38 -5 -96 13
-83 26 3 3 -3 3 -15 0 -12 -3 -21 -9 -21 -14 0 -5 -11 -9 -25 -9 -14 0 -25 5
-25 10 0 6 11 10 25 10 14 0 25 5 25 10 0 15 -27 23 -42 14 -7 -5 -23 -7 -35
-5 -13 1 -23 -2 -23 -7 0 -6 -9 -8 -20 -5 -11 3 -20 0 -20 -6 0 -6 -7 -11 -15
-11 -8 0 -15 4 -15 8 0 13 -48 32 -78 31 -15 -1 -62 -7 -104 -14z"/>
</g>
</svg>
